# xmcd
#
# Track frame offsets: 
#        150
#        15873
#        31622
#        45072
#        60267
#        78047
#        96812
#        115510
#        132984
#        148289
#        164153
#        184236
#        206043
#        225448
#        241013
#        261888
#        278433
#        297792
#        319991
#        334586
#
# Disc length: 4679 seconds
#
# Revision: 1
# Processed by: cddbd v1.5.2PL0 Copyright (c) Steve Scherf et al.
# Submitted via: ExactAudioCopyFreeDBPlugin 1.0
#
DISCID=fe124514
DTITLE=Various Artist - Return To Soul City - Disc 1
DYEAR=2012
DGENRE=Soul
TTITLE0=The Jacksons - Show You The Way To Go
TTITLE1=The Real Thing - You To Me Are Everything
TTITLE2=Billy Ocean - Love Really Hurts Without You
TTITLE3=Barry White - You See The Trouble With Me
TTITLE4=Hot Chocolate - You Sexy Thing
TTITLE5=The Floaters - Float On
TTITLE6=Frankie Valli And The Four Seasons - Who Loves You [2006 Remas
TTITLE6=tered LP Version]
TTITLE7=Harold Melvin And The Blue Notes - Don't Leave Me This Way
TTITLE8=The Stylistics - Funky Weekend
TTITLE9=The O'Jays - I Love Music
TTITLE10=The Manhattans - Kiss And Say Goodbye
TTITLE11=Rose Royce - Wishing On A Star
TTITLE12=Archie Bell And The Drells - The Soul City Walk
TTITLE13=Johnny Mathis And Deniece Williams - That's What Friends Are 
TTITLE13=For
TTITLE14=Marilyn McCoo And Billy Davis Jr. - You Don't Have To Be A St
TTITLE14=ar (To Be In My Show)
TTITLE15=Dorothy Moore - Misty Blue
TTITLE16=Van McCoy And The Soul City Symphony - The Shuffle
TTITLE17=Osibisa - Sunshine Day
TTITLE18=The Fatback Band - (Are You Ready) Do The Bus Stop
TTITLE19=Heatwave - Boogie Nights
EXTD=
EXTT0=
EXTT1=
EXTT2=
EXTT3=
EXTT4=
EXTT5=
EXTT6=
EXTT7=
EXTT8=
EXTT9=
EXTT10=
EXTT11=
EXTT12=
EXTT13=
EXTT14=
EXTT15=
EXTT16=
EXTT17=
EXTT18=
EXTT19=
PLAYORDER=
